<svg xmlns="http://www.w3.org/2000/svg" viewBox="0 0 1536 1536">
  <rect width="1536" height="1536" rx="230" ry="230" fill="#000000" />
  <path d="M 1205.0 687.0 L 1205.0 1065.0 L 1389.0 1065.0 L 1389.0 1000.0 L 1281.0 1000.0 L 1278.0 998.0 L 1279.0 909.0 L 1373.0 909.0 L 1373.0 844.0 L 1280.0 844.0 L 1278.0 842.0 L 1278.0 756.0 L 1280.0 754.0 L 1384.0 754.0 L 1384.0 688.0 Z
M 927.0 687.0 L 927.0 1065.0 L 999.0 1065.0 L 999.0 929.0 L 1027.0 927.0 L 1031.0 929.0 L 1085.0 1064.0 L 1162.0 1065.0 L 1100.0 913.0 L 1101.0 909.0 L 1121.0 897.0 L 1134.0 883.0 L 1141.0 872.0 L 1151.0 845.0 L 1154.0 820.0 L 1152.0 771.0 L 1148.0 753.0 L 1137.0 731.0 L 1117.0 710.0 L 1096.0 698.0 L 1075.0 690.0 L 1056.0 687.0 Z
M 1001.0 751.0 L 1039.0 751.0 L 1062.0 758.0 L 1073.0 768.0 L 1079.0 785.0 L 1079.0 825.0 L 1073.0 843.0 L 1060.0 858.0 L 1044.0 865.0 L 1001.0 866.0 L 999.0 864.0 L 999.0 753.0 Z
M 386.0 687.0 L 386.0 753.0 L 458.0 753.0 L 460.0 756.0 L 460.0 1065.0 L 533.0 1065.0 L 533.0 755.0 L 536.0 753.0 L 607.0 754.0 L 607.0 687.0 Z
M 738.0 680.0 L 708.0 687.0 L 680.0 703.0 L 660.0 724.0 L 646.0 750.0 L 636.0 784.0 L 632.0 819.0 L 632.0 930.0 L 636.0 968.0 L 641.0 988.0 L 650.0 1012.0 L 663.0 1033.0 L 680.0 1050.0 L 704.0 1064.0 L 729.0 1071.0 L 764.0 1073.0 L 799.0 1067.0 L 822.0 1056.0 L 845.0 1036.0 L 862.0 1008.0 L 872.0 980.0 L 878.0 941.0 L 879.0 822.0 L 872.0 772.0 L 862.0 744.0 L 845.0 717.0 L 829.0 702.0 L 802.0 687.0 L 771.0 680.0 Z
M 750.0 744.0 L 772.0 747.0 L 788.0 760.0 L 797.0 777.0 L 803.0 811.0 L 804.0 913.0 L 800.0 962.0 L 790.0 990.0 L 779.0 1001.0 L 765.0 1007.0 L 742.0 1006.0 L 731.0 1000.0 L 720.0 989.0 L 711.0 969.0 L 707.0 943.0 L 705.0 858.0 L 707.0 809.0 L 711.0 784.0 L 722.0 760.0 L 733.0 750.0 Z
M 236.0 680.0 L 218.0 683.0 L 195.0 692.0 L 180.0 702.0 L 161.0 720.0 L 149.0 740.0 L 143.0 758.0 L 140.0 778.0 L 141.0 805.0 L 146.0 824.0 L 154.0 841.0 L 171.0 862.0 L 194.0 882.0 L 256.0 920.0 L 279.0 938.0 L 286.0 949.0 L 289.0 962.0 L 286.0 988.0 L 274.0 1002.0 L 267.0 1006.0 L 252.0 1008.0 L 231.0 1006.0 L 223.0 1002.0 L 214.0 993.0 L 210.0 985.0 L 207.0 953.0 L 136.0 953.0 L 137.0 986.0 L 143.0 1009.0 L 151.0 1026.0 L 161.0 1040.0 L 181.0 1056.0 L 196.0 1064.0 L 215.0 1070.0 L 267.0 1072.0 L 293.0 1067.0 L 315.0 1057.0 L 336.0 1040.0 L 350.0 1021.0 L 360.0 996.0 L 363.0 977.0 L 363.0 950.0 L 360.0 932.0 L 349.0 906.0 L 330.0 882.0 L 292.0 855.0 L 240.0 824.0 L 222.0 808.0 L 215.0 791.0 L 216.0 767.0 L 223.0 755.0 L 232.0 748.0 L 249.0 744.0 L 268.0 747.0 L 282.0 758.0 L 286.0 766.0 L 289.0 798.0 L 359.0 798.0 L 359.0 774.0 L 356.0 751.0 L 350.0 735.0 L 336.0 713.0 L 321.0 699.0 L 307.0 690.0 L 283.0 683.0 Z
M 1101.0 444.0 L 1100.0 630.0 L 1134.0 630.0 L 1134.0 445.0 Z
M 956.0 444.0 L 955.0 630.0 L 988.0 630.0 L 987.0 516.0 L 990.0 517.0 L 1034.0 630.0 L 1068.0 630.0 L 1068.0 444.0 L 1036.0 445.0 L 1036.0 561.0 L 1033.0 558.0 L 990.0 444.0 Z
M 686.0 444.0 L 686.0 630.0 L 720.0 630.0 L 720.0 562.0 L 722.0 560.0 L 735.0 561.0 L 760.0 630.0 L 796.0 630.0 L 768.0 554.0 L 784.0 539.0 L 792.0 520.0 L 794.0 493.0 L 791.0 479.0 L 785.0 466.0 L 770.0 452.0 L 753.0 446.0 L 739.0 444.0 Z
M 722.0 474.0 L 745.0 475.0 L 757.0 486.0 L 760.0 500.0 L 758.0 515.0 L 754.0 523.0 L 745.0 530.0 L 722.0 531.0 L 720.0 529.0 L 720.0 476.0 Z
M 569.0 444.0 L 569.0 475.0 L 599.0 475.0 L 601.0 477.0 L 601.0 630.0 L 635.0 630.0 L 635.0 477.0 L 637.0 475.0 L 667.0 475.0 L 667.0 444.0 Z
M 346.0 444.0 L 345.0 630.0 L 427.0 630.0 L 426.0 599.0 L 381.0 600.0 L 378.0 597.0 L 378.0 554.0 L 380.0 552.0 L 420.0 552.0 L 419.0 521.0 L 382.0 522.0 L 378.0 519.0 L 378.0 478.0 L 381.0 475.0 L 426.0 475.0 L 426.0 445.0 Z
M 244.0 444.0 L 244.0 630.0 L 324.0 630.0 L 324.0 600.0 L 280.0 600.0 L 278.0 598.0 L 278.0 445.0 Z
M 140.0 444.0 L 138.0 445.0 L 138.0 630.0 L 221.0 630.0 L 220.0 599.0 L 175.0 600.0 L 172.0 597.0 L 172.0 554.0 L 174.0 552.0 L 215.0 552.0 L 215.0 522.0 L 173.0 521.0 L 172.0 477.0 L 174.0 475.0 L 219.0 475.0 L 219.0 445.0 Z
M 862.0 442.0 L 839.0 451.0 L 829.0 461.0 L 821.0 476.0 L 816.0 510.0 L 818.0 587.0 L 826.0 609.0 L 842.0 626.0 L 856.0 632.0 L 884.0 633.0 L 895.0 630.0 L 907.0 623.0 L 919.0 609.0 L 926.0 592.0 L 929.0 577.0 L 929.0 497.0 L 923.0 474.0 L 918.0 464.0 L 906.0 451.0 L 889.0 443.0 Z
M 867.0 471.0 L 878.0 471.0 L 888.0 479.0 L 895.0 501.0 L 895.0 572.0 L 889.0 594.0 L 878.0 603.0 L 864.0 602.0 L 856.0 594.0 L 851.0 577.0 L 852.0 491.0 L 857.0 479.0 Z
M 1334.0 441.0 L 1312.0 448.0 L 1297.0 462.0 L 1290.0 478.0 L 1289.0 499.0 L 1294.0 515.0 L 1299.0 523.0 L 1313.0 537.0 L 1353.0 566.0 L 1358.0 577.0 L 1358.0 591.0 L 1351.0 602.0 L 1345.0 605.0 L 1334.0 605.0 L 1328.0 602.0 L 1321.0 594.0 L 1318.0 574.0 L 1286.0 575.0 L 1286.0 591.0 L 1293.0 610.0 L 1309.0 626.0 L 1327.0 633.0 L 1351.0 633.0 L 1369.0 626.0 L 1383.0 613.0 L 1391.0 595.0 L 1392.0 572.0 L 1388.0 559.0 L 1381.0 548.0 L 1366.0 534.0 L 1335.0 514.0 L 1327.0 506.0 L 1323.0 497.0 L 1323.0 482.0 L 1331.0 471.0 L 1344.0 469.0 L 1357.0 479.0 L 1360.0 495.0 L 1390.0 494.0 L 1390.0 486.0 L 1383.0 464.0 L 1371.0 451.0 L 1355.0 443.0 Z
M 1216.0 441.0 L 1201.0 443.0 L 1184.0 451.0 L 1175.0 460.0 L 1168.0 473.0 L 1163.0 491.0 L 1161.0 514.0 L 1162.0 576.0 L 1169.0 605.0 L 1184.0 624.0 L 1206.0 633.0 L 1228.0 633.0 L 1246.0 626.0 L 1261.0 611.0 L 1269.0 590.0 L 1270.0 571.0 L 1237.0 571.0 L 1234.0 591.0 L 1230.0 598.0 L 1223.0 603.0 L 1212.0 603.0 L 1203.0 597.0 L 1197.0 584.0 L 1195.0 571.0 L 1195.0 505.0 L 1197.0 491.0 L 1202.0 479.0 L 1208.0 473.0 L 1222.0 471.0 L 1229.0 476.0 L 1234.0 484.0 L 1236.0 502.0 L 1270.0 502.0 L 1265.0 471.0 L 1257.0 458.0 L 1241.0 446.0 Z
M 496.0 441.0 L 482.0 444.0 L 467.0 452.0 L 458.0 462.0 L 451.0 476.0 L 446.0 500.0 L 446.0 579.0 L 452.0 603.0 L 466.0 622.0 L 486.0 632.0 L 513.0 633.0 L 526.0 629.0 L 543.0 615.0 L 552.0 597.0 L 555.0 571.0 L 521.0 571.0 L 520.0 588.0 L 513.0 600.0 L 507.0 603.0 L 496.0 603.0 L 488.0 598.0 L 483.0 589.0 L 480.0 576.0 L 481.0 490.0 L 486.0 479.0 L 492.0 473.0 L 506.0 471.0 L 518.0 482.0 L 521.0 502.0 L 555.0 502.0 L 549.0 470.0 L 535.0 452.0 L 522.0 444.0 Z" fill="#ffffff" fill-rule="evenodd" />
</svg>
